<?xml version="1.0" encoding="UTF-8" standalone="no"?>
<svg
   xmlns:dc="http://purl.org/dc/elements/1.1/"
   xmlns:cc="http://creativecommons.org/ns#"
   xmlns:rdf="http://www.w3.org/1999/02/22-rdf-syntax-ns#"
   xmlns:svg="http://www.w3.org/2000/svg"
   xmlns="http://www.w3.org/2000/svg"
   xmlns:sodipodi="http://sodipodi.sourceforge.net/DTD/sodipodi-0.dtd"
   xmlns:inkscape="http://www.inkscape.org/namespaces/inkscape"
   inkscape:version="1.0 (4035a4fb49, 2020-05-01)"
   sodipodi:docname="bars-solid.svg"
   id="svg845"
   version="1.1"
   viewBox="0 0 448 512"
   role="img"
   class="svg-inline--fa fa-bars fa-w-14"
   data-icon="bars"
   data-prefix="fas"
   focusable="false"
   aria-hidden="true">
  <metadata
     id="metadata851">
    <rdf:RDF>
      <cc:Work
         rdf:about="">
        <dc:format>image/svg+xml</dc:format>
        <dc:type
           rdf:resource="http://purl.org/dc/dcmitype/StillImage" />
      </cc:Work>
    </rdf:RDF>
  </metadata>
  <defs
     id="defs849" />
  <sodipodi:namedview
     inkscape:current-layer="svg845"
     inkscape:window-maximized="0"
     inkscape:window-y="0"
     inkscape:window-x="0"
     inkscape:cy="179.2"
     inkscape:cx="273.21429"
     inkscape:zoom="1.5625"
     showgrid="false"
     id="namedview847"
     inkscape:window-height="969"
     inkscape:window-width="1898"
     inkscape:pageshadow="2"
     inkscape:pageopacity="0"
     guidetolerance="10"
     gridtolerance="10"
     objecttolerance="10"
     borderopacity="1"
     bordercolor="#666666"
     pagecolor="#ffffff" />
  <path
     style="stroke-width:1.07662"
     id="path843"
     d="m 16.64,117.99713 h 416 c 8.837,0 16,-8.30274 16,-18.545856 V 53.086627 c 0,-10.243111 -7.163,-18.54586 -16,-18.54586 h -416 c -8.837,0 -16,8.302749 -16,18.54586 v 46.364647 c 0,10.243116 7.163,18.545856 16,18.545856 z m 0,185.4586 h 416 c 8.837,0 16,-8.30275 16,-18.54586 v -46.36464 c 0,-10.24312 -7.163,-18.54586 -16,-18.54586 h -416 c -8.837,0 -16,8.30274 -16,18.54586 v 46.36464 c 0,10.24311 7.163,18.54586 16,18.54586 z m 0,185.45859 h 416 c 8.837,0 16,-8.30274 16,-18.54585 v -46.36465 c 0,-10.24311 -7.163,-18.54586 -16,-18.54586 h -416 c -8.837,0 -16,8.30275 -16,18.54586 v 46.36465 c 0,10.24311 7.163,18.54585 16,18.54585 z"
     fill="currentColor" />
</svg>
